Coordinates
version=1
nRows=16
nColumns=40
inDegrees=yes

Units are S.I. units (second, meters, Newtons, ...)
Angles are in degrees.

endheader
time	pelvis_tilt	pelvis_list	pelvis_rotation	pelvis_tx	pelvis_ty	pelvis_tz	hip_flexion_r	hip_adduction_r	hip_rotation_r	knee_angle_r	knee_angle_r_beta	ankle_angle_r	subtalar_angle_r	mtp_angle_r	hip_flexion_l	hip_adduction_l	hip_rotation_l	knee_angle_l	knee_angle_l_beta	ankle_angle_l	subtalar_angle_l	mtp_angle_l	lumbar_extension	lumbar_bending	lumbar_rotation	arm_flex_r	arm_add_r	arm_rot_r	elbow_flex_r	pro_sup_r	wrist_flex_r	wrist_dev_r	arm_flex_l	arm_add_l	arm_rot_l	elbow_flex_l	pro_sup_l	wrist_flex_l	wrist_dev_l
     29.42000000	     -4.53804308	     -3.95565785	      1.01705121	      0.93790703	      0.93346306	      0.50747648	     13.02818186	      2.72749825	    -16.85277961	     17.13952719	     17.13952719	     10.32410132	      3.91995758	     -1.63819127	     26.96952660	    -12.59952656	     -3.16325675	     56.09220522	     56.09220522	     10.24479673	    -17.46565569	     10.48400111	     -9.75239031	      7.16115023	      2.96373828	     15.18681597	    -16.86641219	     -7.31682105	     43.65632080	     45.63769322	      0.00000000	      0.00000000	      4.09184341	     -8.59879671	     -3.69052444	     39.06580335	     45.68164087	      0.00000000	      0.00000000
     29.43371429	     -4.71259938	     -3.84480118	      1.27312614	      0.93597508	      0.93344715	      0.50739273	     12.63859567	      2.64593565	    -16.99492530	     16.78181206	     16.78181206	     10.57112891	      4.02413816	     -1.73966657	     28.05867616	    -12.32655463	     -3.17178585	     53.41840535	     53.41840535	     10.55051905	    -17.56443897	     10.51661779	     -9.68808181	      7.18274016	      2.91230718	     17.47208200	    -17.13303870	     -7.44891749	     44.87590569	     45.61370360	      0.00000000	      0.00000000	      2.75638202	     -8.46514254	     -3.46582197	     37.93377904	     45.64089043	      0.00000000	      0.00000000
     29.44742857	     -4.91419490	     -3.76181986	      1.46321293	      0.93403790	      0.93329633	      0.50739901	     12.29064734	      2.62288420	    -17.02012657	     16.42752656	     16.42752656	     10.80717689	      4.02296889	     -1.82219251	     28.96301092	    -12.07156560	     -3.25428974	     50.42088732	     50.42088732	     10.79663432	    -17.51142777	     10.62948056	     -9.61392137	      7.18830365	      3.20850567	     19.57987259	    -17.63053285	     -7.57642844	     45.97333209	     45.59277708	      0.00000000	      0.00000000	      1.50491025	     -8.22405788	     -3.27358694	     37.08895970	     45.60221557	      0.00000000	      0.00000000
     29.46114286	     -4.99538244	     -3.73913894	      1.71750838	      0.93225947	      0.93327636	      0.50725814	     11.74188805	      2.65073829	    -17.20586130	     15.94901150	     15.94901150	     10.87261380	      4.21460481	     -2.34080782	     29.46447226	    -11.77266000	     -3.25024843	     46.94772671	     46.94772671	     10.39409202	    -17.58165554	      9.42899998	     -9.66002781	      7.32878884	      3.07074559	     21.73419442	    -17.94573970	     -7.02586332	     47.79846283	     45.51899802	      0.00000000	      0.00000000	      0.55020645	     -8.17022729	     -2.47287247	     35.01059259	     45.51950238	      0.00000000	      0.00000000
     29.47485714	     -5.10375379	     -3.66016037	      1.92719644	      0.93050170	      0.93321926	      0.50715003	     11.25378446	      2.64401465	    -17.24398224	     15.51677767	     15.51677767	     11.09279774	      4.16189653	     -2.39003009	     29.87056723	    -11.37993104	     -3.26400534	     43.36428021	     43.36428021	     10.37898014	    -17.38083826	      9.85897946	     -9.65138408	      7.30443370	      3.16773804	     23.78272759	    -18.21089429	     -7.13798405	     49.04786716	     45.49166341	      0.00000000	      0.00000000	     -0.72659491	     -8.02639255	     -2.25204118	     34.23548220	     45.47686068	      0.00000000	      0.00000000
     29.48857143	     -5.26872448	     -3.68078577	      2.11396251	      0.92871715	      0.93281355	      0.50684070	     10.89383074	      2.69757899	    -17.31566602	     15.19820149	     15.19820149	     11.31035562	      4.23303128	     -2.50048264	     30.30337903	    -11.04241735	     -3.19223011	     39.83502167	     39.83502167	     10.56647419	    -16.86562781	     10.14675666	     -9.60562596	      7.47412079	      3.33836754	     25.79822733	    -18.51602971	     -7.20458424	     50.27204033	     45.46293042	      0.00000000	      0.00000000	     -1.90314376	     -7.83315451	     -2.01631407	     33.48170649	     45.43187300	      0.00000000	      0.00000000
     29.50228571	     -5.35790125	     -3.71167822	      2.29965146	      0.92704456	      0.93251462	      0.50649797	     10.43090788	      2.76229604	    -17.45903215	     14.84728568	     14.84728568	     11.53125864	      4.39949398	     -2.63378687	     30.52708507	    -10.68410918	     -3.09171812	     36.18302398	     36.18302398	     10.59716476	    -16.18634285	     10.41104326	     -9.62730353	      7.60906876	      3.32373793	     27.76020162	    -18.60518469	     -7.16113592	     51.68948213	     45.42215784	      0.00000000	      0.00000000	     -3.05656083	     -7.71801380	     -1.71814504	     32.63492780	     45.37854664	      0.00000000	      0.00000000
     29.51600000	     -5.49271694	     -3.76723961	      2.46966040	      0.92538648	      0.93206017	      0.50605738	     10.04321166	      2.83589031	    -17.60213746	     14.54333895	     14.54333895	     11.75627603	      4.58985468	     -2.76861186	     30.77260878	    -10.35065893	     -3.00162248	     32.61834575	     32.61834575	     10.62641340	    -15.13852569	     10.61852901	     -9.56691573	      7.74455438	      3.37980923	     29.59618180	    -18.72400064	     -7.09438456	     53.06386585	     45.38139151	      0.00000000	      0.00000000	     -4.11774807	     -7.53590377	     -1.43476288	     31.92672779	     45.32682843	      0.00000000	      0.00000000
     29.52971429	     -5.53785742	     -3.93497330	      2.67360186	      0.92383629	      0.93160732	      0.50548653	      9.51317052	      2.99561281	    -18.05486987	     14.17130013	     14.17130013	     11.96454450	      5.24468441	     -3.05602206	     30.90812905	    -10.11026979	     -2.84260013	     29.14451964	     29.14451964	     10.21132465	    -14.00646225	      9.88245240	     -9.63117308	      8.03858237	      3.20284017	     31.14046625	    -18.79576548	     -6.41488107	     55.60380092	     45.27853335	      0.00000000	      0.00000000	     -5.19829927	     -7.50727542	     -0.57820984	     30.92953225	     45.20412096	      0.00000000	      0.00000000
     29.54342857	     -5.59743216	     -3.98970145	      2.80553788	      0.92235713	      0.93118528	      0.50488480	      9.08489298	      3.05657229	    -18.13419556	     13.96185292	     13.96185292	     12.22599700	      5.35552404	     -3.16073985	     30.99944291	     -9.80882336	     -2.89699070	     25.86727938	     25.86727938	     10.13603595	    -12.39401126	      9.99801166	     -9.62374332	      8.13775225	      3.33489755	     32.71516900	    -18.84902344	     -6.33241171	     57.01722988	     45.23665213	      0.00000000	      0.00000000	     -6.14417305	     -7.37734893	     -0.26850815	     30.47135129	     45.15010194	      0.00000000	      0.00000000
     29.55714286	     -5.70794309	     -4.11470807	      2.94170715	      0.92090505	      0.93061759	      0.50417593	      8.69628397	      3.18187071	    -18.26416988	     13.72512121	     13.72512121	     12.47127254	      5.57380207	     -3.24767824	     31.19568205	     -9.57638930	     -2.91339487	     22.91757040	     22.91757040	     10.00863243	    -10.64747724	     10.14675704	     -9.53162704	      8.28825103	      3.33578835	     34.20563372	    -18.72324512	     -6.23384991	     58.50765260	     45.19037077	      0.00000000	      0.00000000	     -7.07442745	     -7.21239253	     -0.00605829	     30.05763966	     45.10128363	      0.00000000	      0.00000000
     29.57085714	     -5.68744216	     -4.21852931	      3.09020325	      0.91964246	      0.93023699	      0.50334404	      8.11694279	      3.28619734	    -18.50112629	     13.42592319	     13.42592319	     12.75360232	      5.93130092	     -3.31258954	     31.26784089	     -9.36469493	     -3.15309716	     20.33988144	     20.33988144	      9.73210964	     -8.80984331	     10.19074264	     -9.59810802	      8.43598218	      3.13659153	     35.59027143	    -18.38279544	     -6.00761343	     60.50004056	     45.12250650	      0.00000000	      0.00000000	     -8.09755856	     -7.12906539	      0.32260550	     29.64370118	     45.04222788	      0.00000000	      0.00000000
     29.58457143	     -5.65803654	     -4.40046367	      3.22062088	      0.91854491	      0.92972729	      0.50240513	      7.53056202	      3.45034861	    -18.82885785	     13.16922233	     13.16922233	     13.12323704	      6.49723701	     -3.19090662	     31.40117870	     -9.26153868	     -3.43950881	     18.23591668	     18.23591668	      8.96100671	     -7.11521306	      8.91976236	     -9.70375280	      8.67222800	      3.62261428	     35.79217017	    -18.93063726	     -5.67626028	     64.73540984	     45.03438297	      0.00000000	      0.00000000	     -8.85517035	     -7.37239924	      3.14143737	     29.69783015	     44.71565149	      0.00000000	      0.00000000
     29.59828571	     -5.65787404	     -4.48164792	      3.30859453	      0.91752669	      0.92926169	      0.50140560	      6.98991674	      3.52731014	    -18.90625144	     12.93231637	     12.93231637	     13.41188733	      6.71394852	     -3.24394189	     31.56788846	     -9.06504885	     -3.72277049	     16.63170463	     16.63170463	      8.61946185	     -5.73261488	      9.23742147	     -9.66509610	      8.73678884	      3.44619652	     37.04178914	    -18.44820334	     -5.59246499	     66.17939188	     44.99326379	      0.00000000	      0.00000000	     -9.71050624	     -7.31121597	      3.30502280	     29.42932867	     44.68955221	      0.00000000	      0.00000000
     29.61200000	     -5.61959553	     -4.59059498	      3.38347336	      0.91668345	      0.92876809	      0.50031368	      6.37726927	      3.63480443	    -19.02966231	     12.66351592	     12.66351592	     13.72246368	      7.00615032	     -3.25184952	     31.77772026	     -8.94303265	     -4.10671931	     15.65060162	     15.65060162	      8.24605440	     -4.58167758	      9.36900755	     -9.67740517	      8.83213441	      3.23842968	     38.03352898	    -17.96178353	     -5.40649953	     68.13976534	     44.93273438	      0.00000000	      0.00000000	    -10.55666546	     -7.21502194	      3.47265813	     29.32915930	     44.66667728	      0.00000000	      0.00000000
     29.62571429	     -5.56391526	     -4.65207478	      3.43164096	      0.91605342	      0.92825798	      0.49907033	      5.75586642	      3.68251035	    -19.02495329	     12.44927917	     12.44927917	     14.04878422	      7.19492398	     -3.25071548	     31.93145475	     -8.78701368	     -4.44864959	     15.12255972	     15.12255972	      7.78307950	     -3.90168985	      9.42039270	     -9.64096966	      8.90238165	      3.11070164	     38.84541078	    -17.51539211	     -5.23781189	     69.96751059	     44.87549833	      0.00000000	      0.00000000	    -11.32038515	     -7.15069491	      3.58382447	     29.23816572	     44.64992139	      0.00000000	      0.00000000
